<svg width="195" height="100" viewBox="0 0 195 100" fill="none" xmlns="http://www.w3.org/2000/svg">
<rect width="195" height="100" rx="10" fill="#EAEAEA"/>
<path d="M121 39.5435L116.053 29.141C115.721 28.4441 115.019 28 114.247 28H109.642M121 39.5435H113.049M121 39.5435V45.5401C121 46.084 120.779 46.6044 120.387 46.9814L119.202 48.1213M75 39.5435L80.1294 29.1171C80.4659 28.4332 81.1618 28 81.924 28H85.6008M75 39.5435H82.7613M75 39.5435V45.4005C75 46.0248 75.2916 46.6133 75.7883 46.9916L77.2716 48.1213M85.6008 28L82.7613 39.5435M85.6008 28H92.4156M82.7613 39.5435H90.3333M82.7613 39.5435V46.3913M90.3333 39.5435L92.4156 28M90.3333 39.5435H98.0947M90.3333 39.5435V46.3913M92.4156 28H98.0947M98.0947 28V39.5435M98.0947 28H103.774M98.0947 39.5435H105.099M98.0947 39.5435V46.3913M105.099 39.5435H113.049M105.099 39.5435L105.025 38.9023M103.774 28H109.642M103.774 28L105.025 38.9023M109.642 28L113.049 39.5435M113.049 39.5435V46.3913M113.049 46.3913L116.397 48.4971C117.017 48.8874 117.801 48.9071 118.44 48.5484L119.202 48.1213M113.049 46.3913L110.731 48.255C110.077 48.7808 109.164 48.8423 108.445 48.409L105.099 46.3913M105.025 38.9023L105.099 46.3913M105.099 46.3913L102.585 48.2097C101.838 48.7502 100.819 48.71 100.117 48.1124L98.0947 46.3913M98.0947 46.3913L95.2823 48.3291C94.5851 48.8095 93.6611 48.7989 92.9752 48.3026L90.3333 46.3913M90.3333 46.3913L87.8897 48.2523C87.2018 48.7762 86.2552 48.7987 85.5432 48.3081L82.7613 46.3913M82.7613 46.3913L79.7804 48.3519C79.0712 48.8183 78.1449 48.7863 77.4696 48.2721L77.2716 48.1213M77.2716 48.1213V71C77.2716 72.1046 78.167 73 79.2716 73H83.5185M119.202 48.1213V71C119.202 72.1046 118.306 73 117.202 73H95.4444M95.4444 73V54.4565C95.4444 53.352 94.549 52.4565 93.4444 52.4565H85.5185C84.4139 52.4565 83.5185 53.352 83.5185 54.4565V73M95.4444 73H83.5185M107.37 52.4565H101.988C100.883 52.4565 99.9877 53.352 99.9877 54.4565V62C99.9877 63.1046 100.883 64 101.988 64H113.51C114.615 64 115.51 63.1046 115.51 62V54.4565C115.51 53.352 114.615 52.4565 113.51 52.4565H107.37Z" stroke="black" stroke-linecap="round"/>
</svg>
